<?xml version="1.0" encoding="utf-8"?>
<svg viewBox="0 0 500 500" width="1px" xmlns="http://www.w3.org/2000/svg" xmlns:bx="https://boxy-svg.com">
  <defs>
    <bx:guide x="224.637" y="112.553" angle="0"/>
    <bx:guide x="218.902" y="127.723" angle="0"/>
    <bx:guide x="214.97298294864993" y="120.66864650443986" angle="0"/>
    <bx:guide x="229.19694616204325" y="118.71858703163595" angle="0"/>
  </defs>
  <path d="M 228.592 119.014 L 219.956 127.894 C 219.717 128.14 219.318 127.856 219.474 127.549 L 222.548 121.483 C 222.649 121.284 222.504 121.048 222.28 121.048 L 215.814 121.048 C 215.547 121.048 215.413 120.726 215.6 120.537 L 223.609 112.422 C 223.842 112.187 224.228 112.446 224.099 112.75 L 221.802 118.166 C 221.718 118.365 221.865 118.586 222.082 118.583 L 228.373 118.505 C 228.64 118.502 228.778 118.823 228.592 119.014 Z" stroke="#000000"/>
  <circle style="stroke: rgb(0, 0, 0);" cx="218.14" cy="123.808" r="0.819"/>
  <circle style="stroke: rgb(0, 0, 0);" cx="225.612" cy="115.908" r="0.819"/>
  <line style="fill: rgb(216, 216, 216); stroke: rgb(0, 0, 0);" x1="230.659" y1="112.496" x2="235.563" y2="115.621" transform="matrix(0, 0, 0, 1, 230.65899658203125, 0)"/>
</svg>